 <svg  version="1.0" xmlns="http://www.w3.org/2000/svg"  width="460.000000pt" height="460.000000pt" viewBox="0 0 460.000000 460.000000"  preserveAspectRatio="xMidYMid meet">  <g transform="translate(0.000000,460.000000) scale(0.100000,-0.100000)" fill="#002afa" stroke="none"> <path d="M0 2350 l0 -2250 2250 0 2250 0 0 2250 0 2250 -2250 0 -2250 0 0 -2250z m1219 1594 c74 -21 231 -110 266 -148 6 -6 30 -27 55 -48 108 -87 370 -366 440 -468 26 -37 29 -41 60 -79 11 -13 20 -28 20 -32 0 -4 6 -14 13 -21 41 -40 177 -287 177 -319 0 -5 6 -9 14 -9 7 0 21 21 31 48 15 40 51 110 90 173 6 9 23 39 39 65 33 55 87 127 98 132 5 2 8 10 8 18 0 8 4 14 8 14 4 0 15 12 24 28 9 15 27 38 40 52 13 14 57 64 98 110 93 106 207 219 285 285 33 28 62 53 65 56 14 16 119 82 173 109 96 47 162 57 228 36 161 -52 283 -236 384 -576 7 -25 21 -70 30 -100 9 -30 25 -84 35 -120 10 -36 33 -114 50 -175 18 -60 35 -128 39 -150 4 -23 10 -46 14 -52 6 -10 52 -217 83 -373 54 -275 72 -641 38 -772 -18 -70 -88 -209 -135 -270 -69 -88 -213 -216 -300 -266 -18 -11 -69 -40 -113 -65 -202 -117 -506 -216 -788 -257 -176 -26 -226 -30 -413 -36 -197 -7 -440 5 -570 27 -33 5 -87 15 -120 20 -106 18 -329 74 -390 99 -11 4 -63 25 -115 45 -125 49 -265 123 -370 196 -228 158 -365 347 -406 558 -16 87 -19 357 -5 442 5 30 12 77 15 104 21 198 179 853 266 1100 4 11 24 72 44 135 86 266 214 443 349 486 56 17 84 17 146 -2z"/> <path d="M1225 2384 c-65 -9 -184 -37 -255 -61 -216 -71 -342 -176 -385 -319 -20 -66 -19 -100 6 -178 17 -57 30 -77 87 -135 104 -106 255 -173 487 -217 138 -26 407 -24 550 5 216 44 370 113 462 208 71 74 96 130 101 226 4 72 2 83 -27 141 -60 122 -183 212 -371 273 -138 45 -203 54 -415 58 -115 2 -223 1 -240 -1z m440 -130 c91 -15 119 -23 210 -55 281 -99 368 -291 202 -441 -94 -85 -303 -161 -480 -175 l-77 -6 29 65 c33 72 51 179 51 302 0 107 -15 185 -50 263 l-29 63 27 0 c15 0 68 -7 117 -16z m-504 -41 c-70 -140 -68 -443 4 -583 9 -18 15 -33 13 -35 -5 -5 -153 32 -208 53 -67 25 -130 60 -178 99 -162 132 -116 306 110 417 76 38 215 84 256 85 l22 1 -19 -37z"/> <path d="M3000 2384 c-350 -60 -563 -182 -629 -359 -25 -65 -26 -122 -6 -188 32 -107 137 -212 270 -271 22 -9 49 -21 60 -26 37 -17 160 -49 250 -66 127 -24 398 -24 525 0 88 17 214 50 250 66 225 100 329 213 338 367 12 180 -133 330 -408 423 -122 41 -196 51 -410 55 -118 2 -226 2 -240 -1z m70 -118 c0 -2 -11 -29 -25 -61 -74 -167 -72 -409 4 -569 l29 -58 -62 6 c-279 31 -514 165 -541 308 -29 153 176 306 488 362 80 15 107 18 107 12z m510 -43 c127 -36 222 -86 285 -148 80 -81 95 -152 49 -243 -36 -73 -107 -124 -269 -193 -32 -13 -185 -49 -212 -49 l-23 0 19 38 c43 85 55 151 55 297 -1 146 -13 214 -56 298 l-19 37 43 -6 c24 -4 81 -18 128 -31z"/> </g> </svg> 